<svg xmlns="http://www.w3.org/2000/svg" width="255" height="37" viewBox="0 0 255 37"><g><g><g><g><path fill="#fff" d="M225.843 21.275c0 2.997 2.303 5.336 5.41 5.336 3.363 0 5.41-2.156 5.41-5.665 0-2.888-2.193-5.155-5.374-5.155-3.29 0-5.446 2.413-5.446 5.484zm5.488-11.88c6.802 0 12.104 4.9 12.104 11.665 0 6.839-4.936 11.995-12.25 11.995-6.875 0-12.141-5.632-12.141-11.885 0-6.729 5.375-11.776 12.287-11.776zM212.031 0c2.268 0 4.135 1.791 4.135 4.058 0 2.302-1.867 4.167-4.209 4.167-2.232 0-4.026-1.791-4.026-4.094 0-2.267 1.83-4.131 4.1-4.131zm-3.442 32.287V9.833h6.8v22.454zM189.215 9.833l4.899 13.129 4.606-13.129h7.164l-8.81 22.454h-6.067l-9.395-22.454zm-26.794 11.442c0 2.997 2.303 5.336 5.41 5.336 3.363 0 5.41-2.156 5.41-5.665 0-2.888-2.193-5.155-5.373-5.155-3.29 0-5.447 2.413-5.447 5.484zm5.483-11.88c6.8 0 12.1 4.9 12.1 11.665 0 6.839-4.935 11.995-12.246 11.995-6.872 0-12.136-5.632-12.136-11.885 0-6.729 5.374-11.776 12.282-11.776zm-32.46 11.697c0 3.472 2.303 5.702 5.849 5.702 3.326 0 5.008-2.668 5.008-5.848 0-2.852-2.23-5.264-5.3-5.264-3.18 0-5.557 2.156-5.557 5.41zm.183-16.815v7.676s2.997-2.559 6.909-2.559c6.616 0 10.527 5.593 10.527 11.698 0 6.25-3.984 11.734-10.308 11.734-2.96 0-5.154-.841-7.238-2.888v2.34h-6.653V4.276zm-25.954 14h8.518c-.805-2.157-1.974-3.18-4.094-3.18-2.303 0-3.583 1.097-4.424 3.18zm4.502-8.883c6.473 0 11.044 4.28 11.044 12.288l.002.195c.006.43.03.71-.002 1.158h-15.798c.585 2.67 2.706 3.95 5.266 3.95 2.103 0 3.524-1.398 4.66-2.846l.204-.263s3.316 1.912 4.872 2.847l.43.262c-1.974 3.51-5.778 5.85-10.495 5.85-6.912 0-11.666-4.205-11.666-11.738 0-6.802 4.863-11.703 11.483-11.703zm-42.81.44l4.46 12.433 4.093-12.434h5.447l4.313 12.507 4.423-12.507h7.055l-8.444 22.454h-5.885L82.66 20.22l-4.021 12.068h-5.885L64.2 9.833z"/></g><g><path fill="#fff" d="M250.084 24.18c2.303 0 4.203 1.9 4.203 4.204 0 2.303-1.9 4.203-4.203 4.203-2.303 0-4.204-1.9-4.204-4.203 0-2.303 1.9-4.204 4.204-4.204z"/></g></g><g><g transform="rotate(180 30.5 22)"><path fill="#ffd723" d="M28.908 9.054a3.348 3.348 0 0 1 5.74 0l18.128 30.213H16.692a3.348 3.348 0 0 1-2.87-5.07z"/></g><g transform="rotate(180 20 22)"><path fill="#fff" d="M24.434 9.054a3.348 3.348 0 0 0-5.741 0L.565 39.267h36.084a3.348 3.348 0 0 0 2.87-5.07z"/></g><g><path fill="#f6f6f6" d="M10.78 4.27h29.215L25.388 28.616z"/></g></g></g></g></svg>